<?xml version="1.0" encoding="UTF-8"?>
<svg version="1.1" xmlns="http://www.w3.org/2000/svg" width="424" height="551">
<path d="M0 0 C137.61 0 275.22 0 417 0 C417 174.9 417 349.8 417 530 C279.39 530 141.78 530 0 530 C0 355.1 0 180.2 0 0 Z " fill="#FEFEFE" transform="translate(3,10)"/>
<path d="M0 0 C4.2652296 1.58682713 6.77442638 4.80531553 9.625 8.1875 C10.15061523 8.80826416 10.67623047 9.42902832 11.21777344 10.06860352 C22.61201059 23.77847698 32.87083142 39.82843563 38 57 C38.29777344 57.94488281 38.59554688 58.88976562 38.90234375 59.86328125 C42.49789974 72.90338522 42.91899392 88.27434367 38 101 C37.67128906 101.95777344 37.34257812 102.91554688 37.00390625 103.90234375 C27.92866574 128.30186581 4.70194022 144.14070097 -17.953125 154.93017578 C-23.55831412 157.47353034 -29.2791942 159.73227823 -35 162 C-36.46598839 162.58234338 -37.93197102 163.16470128 -39.39794922 163.74707031 C-48.50383471 167.36128692 -57.61783579 170.95459488 -66.73695374 174.53527832 C-70.47304788 176.00310443 -74.20592371 177.47765334 -77.9296875 178.9765625 C-81.85148154 180.55255131 -85.78817601 182.08844114 -89.72770691 183.61938477 C-93.13151439 184.94277357 -96.53321237 186.27154032 -99.93481445 187.60058594 C-101.70180555 188.28945471 -103.4697278 188.97593932 -105.23852539 189.66015625 C-107.80870925 190.65503562 -110.37532749 191.65865063 -112.94140625 192.6640625 C-113.73607803 192.9692984 -114.53074982 193.2745343 -115.34950256 193.58901978 C-119.39732645 194.91233644 -119.39732645 194.91233644 -122 198 C-116.58656984 204.69843631 -111.06451342 211.28450198 -105.44213867 217.80737305 C-102.42951085 221.3100843 -99.47035677 224.84669705 -96.5625 228.4375 C-92.96363971 232.87239317 -89.25267936 237.19567786 -85.5 241.5 C-81.00496923 246.655799 -76.61376949 251.87510667 -72.30859375 257.19140625 C-69.58656003 260.50298366 -66.79863676 263.75316116 -64 267 C-60.46394774 271.10235153 -56.97136829 275.22801677 -53.5625 279.4375 C-49.34620016 284.64223644 -44.95762545 289.6863485 -40.51586914 294.69897461 C-37.34857741 298.30760631 -34.5673664 301.94070156 -32 306 C-40.23649609 309.88343104 -48.61993021 313.25595758 -57.125 316.5 C-59.86011964 317.54884724 -62.59420796 318.60036632 -65.328125 319.65234375 C-66.03053314 319.92235703 -66.73294128 320.1923703 -67.45663452 320.4705658 C-72.66403497 322.47582615 -77.85826681 324.5130499 -83.046875 326.56640625 C-83.78843842 326.85973846 -84.53000183 327.15307068 -85.29403687 327.45529175 C-88.19244984 328.60246841 -91.09056278 329.75036649 -93.98687744 330.90283203 C-110.41733643 337.440168 -124.07545163 341.35754871 -141.9375 341.25 C-143.21818359 341.25773437 -144.49886719 341.26546875 -145.81835938 341.2734375 C-171.23906478 341.22163779 -194.07252644 333.60558645 -212.5 315.75 C-216.44807053 311.70646662 -220.01849392 307.42718472 -223.55078125 303.01953125 C-226.30525082 299.62367005 -229.14280557 296.30934758 -232 293 C-235.55494265 288.87568713 -239.06793589 284.72790506 -242.5 280.5 C-249.00465947 272.49335553 -255.74895864 264.68238874 -262.5625 256.9375 C-269.00115894 249.60588836 -275.28384661 242.13450907 -281.4375 234.5625 C-285.39508188 229.69870975 -289.46542446 224.94118769 -293.55834961 220.19165039 C-297.33334391 215.8019965 -301.00728461 211.33885229 -304.65625 206.84375 C-307.39302049 203.52313514 -310.1910295 200.25953218 -313 197 C-316.55453161 192.87531796 -320.06792143 188.72792288 -323.5 184.5 C-327.93816101 179.03516058 -332.51201679 173.69350553 -337.10546875 168.359375 C-337.57388184 167.81216797 -338.04229492 167.26496094 -338.52490234 166.70117188 C-339.56858193 165.49753742 -340.62784327 164.30733196 -341.69775391 163.12695312 C-342.24737793 162.51271484 -342.79700195 161.89847656 -343.36328125 161.265625 C-343.86770752 160.71165039 -344.37213379 160.15767578 -344.8918457 159.58691406 C-346 158 -346 158 -346 155 C-329.49899011 148.23069258 -312.95946264 141.57820534 -296.3480835 135.08361816 C-290.29413786 132.71638339 -284.24270104 130.34275071 -278.19140625 127.96875 C-277.25533539 127.60159756 -277.25533539 127.60159756 -276.300354 127.22702789 C-261.9760949 121.60777262 -247.67494562 115.93082638 -233.375 110.25 C-216.37165515 103.49629426 -199.35676636 96.77476114 -182.3125 90.125 C-164.21255011 83.06190861 -146.1416209 75.92686238 -128.08138657 68.76296234 C-126.03759843 67.95241126 -123.99363196 67.14231148 -121.94961548 66.33233643 C-113.2942426 62.90193254 -104.64393996 59.45913605 -96 56 C-94.95449982 55.58208191 -93.90899963 55.16416382 -92.83181763 54.73358154 C-80.8506203 49.932263 -69.03627276 44.91682898 -57.4375 39.25 C-56.39320831 38.74241653 -56.39320831 38.74241653 -55.32781982 38.22457886 C-38.79606521 30.16081848 -22.7714731 21.32943403 -9 9 C-8.20980469 8.32839844 -7.41960937 7.65679687 -6.60546875 6.96484375 C-2.78052068 3.90815473 -2.78052068 3.90815473 0 0 Z " fill="#8EEFFE" transform="translate(352,197)"/>
<path d="M0 0 C4.29308146 3.38432699 7.84365902 6.90912503 11.1875 11.25 C11.65381836 11.85207275 12.12013672 12.45414551 12.60058594 13.07446289 C30.45387279 36.50914401 42.53276202 61.16554671 39.69140625 91.26953125 C37.60927547 104.14926061 31.47581848 117.63142737 21.67578125 126.40234375 C19.87032697 128.04352355 19.87032697 128.04352355 18.14453125 130.3984375 C11.85547704 138.02778195 2.80095198 143.35860492 -5.75 148.125 C-6.74700928 148.68127075 -6.74700928 148.68127075 -7.76416016 149.2487793 C-22.53737915 157.24477116 -37.96890577 163.51310352 -53.60995483 169.57498169 C-57.23796378 170.98128755 -60.86325858 172.39445016 -64.48754883 173.81030273 C-65.11179402 174.0541612 -65.73603922 174.29801966 -66.37920094 174.54926777 C-67.65708005 175.04850312 -68.93494535 175.54777385 -70.21279716 176.04707909 C-72.16510819 176.80967343 -74.11769601 177.57155554 -76.07032776 178.33332825 C-89.96757522 183.75724381 -103.83302851 189.26076327 -117.6961937 194.77108383 C-121.03074026 196.0963516 -124.36560076 197.42082887 -127.70043945 198.74536133 C-131.66098362 200.31845927 -135.62150605 201.89161176 -139.58189392 203.46510315 C-154.44176164 209.36878409 -169.30745071 215.2577657 -184.17431641 221.14379883 C-195.45119995 225.60912136 -206.72496105 230.08215666 -217.99437904 234.56628036 C-222.04188582 236.17647567 -226.08991905 237.78534713 -230.13795757 239.39420509 C-234.04353192 240.946638 -237.94821199 242.50129334 -241.85224724 244.05759239 C-244.82908752 245.24352259 -247.80722877 246.42617801 -250.78515625 247.609375 C-251.86476624 248.04057648 -252.94437622 248.47177795 -254.05670166 248.91604614 C-255.04869568 249.3095224 -256.0406897 249.70299866 -257.06274414 250.10839844 C-258.35517784 250.62294586 -258.35517784 250.62294586 -259.67372131 251.14788818 C-261.77101708 251.91612396 -263.8233361 252.50869985 -266 253 C-271.37946764 247.13727049 -276.55131747 241.15946016 -281.55859375 234.9765625 C-284.28530483 231.65215635 -287.07080022 228.38401965 -289.875 225.125 C-297.12589091 216.69483065 -304.37081932 208.26221369 -311.375 199.625 C-314.96133327 195.21893342 -318.64647289 190.9104133 -322.375 186.625 C-339.28947368 167.18421053 -339.28947368 167.18421053 -347 157 C-345.65716201 154.31432402 -344.44380297 154.19526744 -341.66625977 153.1184082 C-340.73005798 152.75141815 -339.7938562 152.3844281 -338.82928467 152.00631714 C-337.79378479 151.6084903 -336.75828491 151.21066345 -335.69140625 150.80078125 C-334.60829163 150.37813995 -333.525177 149.95549866 -332.40924072 149.52005005 C-329.42323726 148.35595184 -326.43497376 147.19788083 -323.4458046 146.0419426 C-320.27577756 144.81412594 -317.10897964 143.57804728 -313.94213867 142.34204102 C-312.64112957 141.83433268 -311.34011943 141.32662702 -310.03910828 140.81892395 C-309.38824438 140.56491129 -308.73738049 140.31089863 -308.06679344 140.04918861 C-306.05954383 139.26618925 -304.05194667 138.48408694 -302.04426575 137.70219421 C-288.27718208 132.3389384 -274.5433843 126.89273187 -260.8125 121.4375 C-258.41263765 120.4848439 -256.01273529 119.53228859 -253.61279297 118.57983398 C-248.82277137 116.67875116 -244.03290236 114.77728475 -239.24316406 112.87548828 C-228.2183489 108.49833435 -217.19204765 104.12493289 -206.16488647 99.75369263 C-202.78849703 98.41504268 -199.41242872 97.07558527 -196.03637695 95.73608398 C-186.9954948 92.15102019 -177.95212524 88.57866044 -168.86743164 85.10595703 C-163.51504679 83.04156338 -158.19734373 80.89037461 -152.875 78.75 C-143.64549606 75.04386732 -134.40574321 71.36484461 -125.15234375 67.71875 C-124.2160614 67.34961487 -123.27977905 66.98047974 -122.31512451 66.60015869 C-118.57714799 65.12664657 -114.83915516 63.65319766 -111.0993042 62.18444824 C-93.70368387 55.35263534 -76.39468247 48.3907847 -59.5625 40.25 C-58.95157501 39.95485504 -58.34065002 39.65971008 -57.71121216 39.35562134 C-36.35964752 29.00153708 -16.8472318 16.8472318 0 0 Z " fill="#72EBFE" transform="translate(379,15)"/>
<path d="M0 0 C4.2652296 1.58682713 6.77442638 4.80531553 9.625 8.1875 C10.15061523 8.80826416 10.67623047 9.42902832 11.21777344 10.06860352 C22.61201059 23.77847698 32.87083142 39.82843563 38 57 C38.29777344 57.94488281 38.59554687 58.88976562 38.90234375 59.86328125 C42.49789974 72.90338522 42.91899392 88.27434367 38 101 C37.67128906 101.95777344 37.34257812 102.91554688 37.00390625 103.90234375 C27.92866574 128.30186581 4.70194022 144.14070097 -17.953125 154.93017578 C-23.55831412 157.47353034 -29.2791942 159.73227823 -35 162 C-36.46598839 162.58234338 -37.93197102 163.16470128 -39.39794922 163.74707031 C-47.71895073 167.04975866 -56.04624706 170.3362179 -64.37890625 173.609375 C-72.01350716 176.60918547 -79.63805862 179.63019206 -87.23510742 182.72412109 C-91.39067012 184.41564303 -95.55155993 186.0935685 -99.71508789 187.76538086 C-101.45750669 188.46781852 -103.19805554 189.17491128 -104.93676758 189.88647461 C-107.47005132 190.92215947 -110.00951023 191.94113065 -112.55078125 192.95703125 C-113.32480789 193.27775101 -114.09883453 193.59847076 -114.89631653 193.9289093 C-121.81715124 196.66133791 -121.81715124 196.66133791 -126 195 C-127.89909828 193.1186503 -129.48849841 191.33712378 -131.125 189.25 C-132.09338078 188.05959538 -133.0621416 186.86949984 -134.03125 185.6796875 C-134.52238281 185.06834961 -135.01351562 184.45701172 -135.51953125 183.82714844 C-137.83737842 180.96653363 -140.23407797 178.17451864 -142.625 175.375 C-145.91938011 171.49307978 -149.1686471 167.58028204 -152.375 163.625 C-156.54156423 158.50266476 -160.86201281 153.52582622 -165.20043945 148.54956055 C-169.1224954 144.04060043 -172.93031865 139.45301936 -176.69140625 134.80859375 C-179.4134416 131.49701436 -182.20142301 128.24689272 -185 125 C-189.44232035 119.84446308 -193.80212819 114.63621357 -198.0859375 109.34765625 C-199.71531298 107.34917734 -201.37845293 105.38967747 -203.0625 103.4375 C-205 101 -205 101 -205 99 C-203.93644287 98.58564697 -202.87288574 98.17129395 -201.77709961 97.74438477 C-177.17374078 88.15479926 -152.6010543 78.48915422 -128.05550003 68.75269699 C-126.02565096 67.94767299 -123.99562229 67.14310351 -121.96554565 66.33865356 C-113.30486211 62.90614536 -104.64924344 59.4612584 -96 56 C-94.95449982 55.58208191 -93.90899963 55.16416382 -92.83181763 54.73358154 C-80.8506203 49.932263 -69.03627276 44.91682898 -57.4375 39.25 C-56.74130554 38.91161102 -56.04511108 38.57322205 -55.32781982 38.22457886 C-38.79606521 30.16081848 -22.7714731 21.32943403 -9 9 C-8.20980469 8.32839844 -7.41960937 7.65679687 -6.60546875 6.96484375 C-2.78052068 3.90815473 -2.78052068 3.90815473 0 0 Z " fill="#8AA6FA" transform="translate(352,197)"/>
<path d="M0 0 C1.98333112 2.03932412 3.77221663 4.05263579 5.5625 6.25 C6.08626221 6.87753174 6.61002441 7.50506348 7.1496582 8.15161133 C8.23836804 9.45639349 9.32354115 10.76413431 10.40527344 12.07470703 C12.35282854 14.42596539 14.33105472 16.74988833 16.31201172 19.07299805 C20.07221442 23.4865977 23.78010576 27.93811572 27.4375 32.4375 C31.8514623 37.85856956 36.39782805 43.15841974 40.95703125 48.45703125 C45.21351925 53.40558716 49.42167006 58.3947854 53.63232422 63.38232422 C55.02459417 65.02908979 56.42005473 66.67310067 57.81640625 68.31640625 C73.49869507 86.78037942 73.49869507 86.78037942 80 96 C76.08471794 97.6075588 72.16747444 99.21029208 68.25 100.8125 C66.67025391 101.4612207 66.67025391 101.4612207 65.05859375 102.12304688 C55.48492293 106.03457524 45.86127213 109.81529611 36.23313904 113.59051514 C23.97049495 118.39958508 11.72416892 123.24946677 -0.51928711 128.10717773 C-4.19685732 129.56621241 -7.87477711 131.0243632 -11.55273438 132.48242188 C-12.76285187 132.96246674 -13.97296936 133.4425116 -15.21975708 133.93710327 C-17.62276321 134.89005601 -20.02613838 135.84207872 -22.42990112 136.79312134 C-28.36333811 139.14396105 -34.28511894 141.51901774 -40.18994141 143.94091797 C-41.33481522 144.40771469 -42.47968903 144.87451141 -43.65925598 145.35545349 C-45.82181901 146.23852493 -47.98158299 147.12849371 -50.13798523 148.02650452 C-51.10089981 148.4185759 -52.06381439 148.81064728 -53.0559082 149.21459961 C-53.89370316 149.56074814 -54.73149811 149.90689667 -55.59468079 150.26353455 C-58.23351852 151.07149917 -60.25650074 151.27597543 -63 151 C-65.0703125 149.05078125 -65.0703125 149.05078125 -67.125 146.3125 C-67.90359375 145.30574219 -68.6821875 144.29898438 -69.484375 143.26171875 C-69.89365234 142.72595215 -70.30292969 142.19018555 -70.72460938 141.63818359 C-72.8586457 138.89710707 -75.11879548 136.26563937 -77.375 133.625 C-78.30751017 132.52622707 -79.23979994 131.42726706 -80.171875 130.328125 C-81.11446959 129.21865336 -82.05717822 128.10927859 -83 127 C-88.19219022 120.89111965 -93.38123581 114.78489359 -98.4375 108.5625 C-102.39508188 103.69870975 -106.46542446 98.94118769 -110.55834961 94.19165039 C-113.58945289 90.66701081 -116.56985316 87.10960118 -119.5 83.5 C-123.93816101 78.03516058 -128.51201679 72.69350553 -133.10546875 67.359375 C-133.57388184 66.81216797 -134.04229492 66.26496094 -134.52490234 65.70117188 C-135.56858193 64.49753742 -136.62784327 63.30733196 -137.69775391 62.12695312 C-138.24737793 61.51271484 -138.79700195 60.89847656 -139.36328125 60.265625 C-139.86770752 59.71165039 -140.37213379 59.15767578 -140.8918457 58.58691406 C-142 57 -142 57 -142 54 C-124.30859473 46.74038634 -106.56283648 39.64419673 -88.75 32.6875 C-83.88445956 30.78629422 -79.01964804 28.88324203 -74.15625 26.9765625 C-73.54014107 26.7350477 -72.92403214 26.49353291 -72.28925323 26.24469948 C-63.2474726 22.69747717 -54.2314292 19.08996499 -45.23104095 15.43905449 C-43.29942063 14.65580547 -41.36724658 13.87393933 -39.43487549 13.09254456 C-38.17174607 12.58165149 -36.90862345 12.07074159 -35.64550781 11.55981445 C-34.71962797 11.18533597 -34.71962797 11.18533597 -33.77504349 10.80329227 C-29.53375107 9.08633422 -25.29926594 7.35316268 -21.06542969 5.61791992 C-18.86154506 4.72521294 -16.65745473 3.83301357 -14.453125 2.94140625 C-13.4485022 2.52486786 -12.44387939 2.10832947 -11.40881348 1.6791687 C-10.48661011 1.308815 -9.56440674 0.9384613 -8.61425781 0.55688477 C-7.81497864 0.23019302 -7.01569946 -0.09649872 -6.19219971 -0.43309021 C-3.65148459 -1.09012719 -2.41814818 -0.98773505 0 0 Z " fill="#77DDFE" transform="translate(148,298)"/>
</svg>
